<?xml version="1.0" encoding="utf-8" standalone="no"?>
<!DOCTYPE svg PUBLIC "-//W3C//DTD SVG 1.1//EN"
  "http://www.w3.org/Graphics/SVG/1.1/DTD/svg11.dtd">
<svg xmlns:xlink="http://www.w3.org/1999/xlink" width="140px" height="140px" viewBox="15 15 120 120" xmlns="http://www.w3.org/2000/svg" version="1.1">
 <metadata>
  <rdf:RDF xmlns:dc="http://purl.org/dc/elements/1.1/" xmlns:cc="http://creativecommons.org/ns#" xmlns:rdf="http://www.w3.org/1999/02/22-rdf-syntax-ns#">
   <cc:Work>
    <dc:type rdf:resource="http://purl.org/dc/dcmitype/StillImage"/>
    <dc:date>2024-03-26T17:08:19.490226</dc:date>
    <dc:format>image/svg+xml</dc:format>
    <dc:creator>
     <cc:Agent>
      <dc:title>Matplotlib v3.8.1, https://matplotlib.org/</dc:title>
     </cc:Agent>
    </dc:creator>
   </cc:Work>
  </rdf:RDF>
 </metadata>
 <defs>
  <style type="text/css">*{stroke-linejoin: round; stroke-linecap: butt}</style>
 </defs>
 <g id="figure_1">
  <g id="patch_1">
   <path d="M 0 144 
L 144 144 
L 144 0 
L 0 0 
L 0 144 
z
" style="fill: none"/>
  </g>
  <g id="axes_1">
   <g id="patch_2">
    <path d="M 46.08 117.072 
C 50.490858 117.072 54.721652 115.319548 57.8406 112.2006 
C 60.959548 109.081652 62.712 104.850858 62.712 100.44 
C 62.712 96.029142 60.959548 91.798348 57.8406 88.6794 
C 54.721652 85.560452 50.490858 83.808 46.08 83.808 
C 41.669142 83.808 37.438348 85.560452 34.3194 88.6794 
C 31.200452 91.798348 29.448 96.029142 29.448 100.44 
C 29.448 104.850858 31.200452 109.081652 34.3194 112.2006 
C 37.438348 115.319548 41.669142 117.072 46.08 117.072 
z
" clip-path="url(#pe7b61c8079)" style="fill: #1e90ff; opacity: 0.1"/>
   </g>
   <g id="patch_3">
    <path d="M 46.08 120.768 
C 51.471049 120.768 56.64202 118.626114 60.454067 114.814067 
C 64.266114 111.00202 66.408 105.831049 66.408 100.44 
C 66.408 95.048951 64.266114 89.87798 60.454067 86.065933 
C 56.64202 82.253886 51.471049 80.112 46.08 80.112 
C 40.688951 80.112 35.51798 82.253886 31.705933 86.065933 
C 27.893886 89.87798 25.752 95.048951 25.752 100.44 
C 25.752 105.831049 27.893886 111.00202 31.705933 114.814067 
C 35.51798 118.626114 40.688951 120.768 46.08 120.768 
z
" clip-path="url(#pe7b61c8079)" style="fill: #1e90ff; opacity: 0.2"/>
   </g>
   <g id="patch_4">
    <path d="M 46.08 124.464 
C 52.451239 124.464 58.562387 121.93268 63.067533 117.427533 
C 67.57268 112.922387 70.104 106.811239 70.104 100.44 
C 70.104 94.068761 67.57268 87.957613 63.067533 83.452467 
C 58.562387 78.94732 52.451239 76.416 46.08 76.416 
C 39.708761 76.416 33.597613 78.94732 29.092467 83.452467 
C 24.58732 87.957613 22.056 94.068761 22.056 100.44 
C 22.056 106.811239 24.58732 112.922387 29.092467 117.427533 
C 33.597613 121.93268 39.708761 124.464 46.08 124.464 
z
" clip-path="url(#pe7b61c8079)" style="fill: #1e90ff; opacity: 0.3"/>
   </g>
   <g id="patch_5">
    <path d="M 301.118095 -138.180534 
C 298.478393 -141.011269 295.789485 -143.795714 293.0526 -146.5326 
C 290.315714 -149.269485 287.531269 -151.958393 284.700534 -154.598095 
L 57.8406 88.6794 
z
" clip-path="url(#pe7b61c8079)" style="fill: #1e90ff; opacity: 0.9"/>
   </g>
  </g>
 </g>
 <defs>
  <clipPath id="pe7b61c8079">
   <rect x="18.36" y="17.28" width="110.88" height="110.88"/>
  </clipPath>
 </defs>
</svg>
